<svg role="img" viewBox="0 0 24 24" xmlns="http://www.w3.org/2000/svg">
  <title>SQL Server</title>
  <path fill="#A91D22" d="M4.2 7.25c1.05-1.56 4.53-2.69 8.24-2.69 3.34 0 6.13.91 7.25 2.15.57.64.63 1.29.16 1.87-1 1.27-3.81 2.09-7.18 2.09-3.85 0-7.1-1.03-8.29-2.52-.32-.4-.38-.61-.18-.9Z"/>
  <path fill="#D63539" d="M5.07 11.11c1.27-1.2 4.24-2.04 7.42-2.04 3.59 0 6.58 1.04 7.34 2.54.27.54.16 1.07-.34 1.55-1.18 1.12-3.89 1.81-7.12 1.81-3.56 0-6.56-.91-7.6-2.25-.4-.52-.31-1.02.3-1.61Z"/>
  <path fill="#F15F5C" d="M7.2 16.12c1.12-.75 3.11-1.18 5.38-1.18 2.43 0 4.59.52 5.71 1.39.84.65 1 1.42.42 2.05-.92 1-3.09 1.63-5.74 1.63-2.87 0-5.34-.75-6.22-1.88-.53-.68-.36-1.37.45-2.01Z"/>
</svg>
